<svg xmlns="http://www.w3.org/2000/svg" width="1200" height="800" viewBox="0 0 1200 800"><defs><linearGradient id="g" x1="0" x2="0" y1="0" y2="1"><stop stop-color="#064e3b"/><stop offset=".55" stop-color="#10b981"/><stop offset="1" stop-color="#d1fae5"/></linearGradient></defs><rect width="1200" height="800" fill="url(#g)"/><path d="M0 560c155-75 310-42 500-92 215-57 402-65 700-18v350H0z" fill="#065f46"/><path d="M0 650c260-40 430 20 690-10 205-23 322-60 510-18v178H0z" fill="#052e25"/><circle cx="930" cy="155" r="86" fill="#f3b33d"/><path d="M330 625c35-76 136-76 170 0-60-15-112-15-170 0z" fill="#031f1a"/><rect x="380" y="612" width="15" height="80" fill="#031f1a"/><rect x="455" y="612" width="15" height="80" fill="#031f1a"/><text x="70" y="120" font-family="Arial,Helvetica,sans-serif" font-size="78" font-weight="900" fill="white">Uganda</text><text x="72" y="170" font-family="Arial,Helvetica,sans-serif" font-size="28" font-weight="700" fill="#f3b33d">Gorillas • Lakes • Green Safaris</text></svg>