<svg xmlns="http://www.w3.org/2000/svg" width="1200" height="800" viewBox="0 0 1200 800"><defs><linearGradient id="g" x1="0" x2="0" y1="0" y2="1"><stop stop-color="#0f766e"/><stop offset=".55" stop-color="#22c55e"/><stop offset="1" stop-color="#ecfdf5"/></linearGradient></defs><rect width="1200" height="800" fill="url(#g)"/><path d="M0 500c190-120 352-80 540-142 240-78 410-52 660-120v562H0z" fill="#14532d" opacity=".62"/><path d="M0 620c260-78 510-10 720-50 190-36 300-80 480-52v282H0z" fill="#052e16"/><circle cx="930" cy="150" r="92" fill="#f3b33d"/><path d="M560 650c52-100 190-96 248 0-88-28-160-26-248 0z" fill="#021b0d"/><rect x="620" y="628" width="20" height="92" fill="#021b0d"/><rect x="745" y="628" width="20" height="92" fill="#021b0d"/><text x="70" y="120" font-family="Arial,Helvetica,sans-serif" font-size="78" font-weight="900" fill="white">Rwanda</text><text x="72" y="170" font-family="Arial,Helvetica,sans-serif" font-size="28" font-weight="700" fill="#f3b33d">Gorillas • Hills • Conservation</text></svg>