<svg xmlns="http://www.w3.org/2000/svg" width="1200" height="800" viewBox="0 0 1200 800"><defs><linearGradient id="g" x1="0" x2="0" y1="0" y2="1"><stop stop-color="#2b1b0b"/><stop offset=".45" stop-color="#d97706"/><stop offset="1" stop-color="#f8efe1"/></linearGradient></defs><rect width="1200" height="800" fill="url(#g)"/><circle cx="930" cy="160" r="100" fill="#f3b33d"/><path d="M0 470c190-110 330-65 520-130 250-86 420-40 680-118v578H0z" fill="#06182f" opacity=".35"/><path d="M0 620c250-68 480 26 730-16 205-35 330-70 470-40v236H0z" fill="#160f07"/><path d="M480 640h22V270h-22z" fill="#0b0804"/><path d="M490 310c-72-45-160-37-235-4 92-86 190-78 235 4zM492 326c80-40 155-35 230 24-90 15-160 11-230-24zM492 310c18-80 70-137 142-168-8 100-50 156-142 168z" fill="#0b0804"/><text x="70" y="120" font-family="Arial,Helvetica,sans-serif" font-size="78" font-weight="900" fill="white">Tanzania</text><text x="72" y="170" font-family="Arial,Helvetica,sans-serif" font-size="28" font-weight="700" fill="#0CAFEC">Serengeti • Ngorongoro • Kilimanjaro</text></svg>