<svg xmlns="http://www.w3.org/2000/svg" width="1200" height="800" viewBox="0 0 1200 800"><defs><linearGradient id="sky" x1="0" x2="0" y1="0" y2="1"><stop stop-color="#f59e0b"/><stop offset=".55" stop-color="#f7c56b"/><stop offset="1" stop-color="#f8efe1"/></linearGradient></defs><rect width="1200" height="800" fill="url(#sky)"/><circle cx="930" cy="150" r="95" fill="#fff7c2" opacity=".9"/><path d="M0 520c160-60 300-30 460-70 215-54 365-80 740-20v370H0z" fill="#7a8f32"/><path d="M0 610c260-35 452 5 720-18 170-14 320-40 480-12v220H0z" fill="#40541c"/><g fill="#1d260b"><path d="M180 650c34-76 130-73 168 0-58-18-108-18-168 0z"/><rect x="220" y="638" width="16" height="78"/><rect x="302" y="638" width="16" height="78"/><path d="M760 662c45-88 170-85 220 0-75-24-142-24-220 0z"/><rect x="807" y="645" width="18" height="92"/><rect x="925" y="645" width="18" height="92"/></g><text x="70" y="120" font-family="Arial,Helvetica,sans-serif" font-size="78" font-weight="900" fill="#06182f">Kenya</text><text x="72" y="170" font-family="Arial,Helvetica,sans-serif" font-size="28" font-weight="700" fill="#0CAFEC">Safari • Wildlife • Adventure</text></svg>