<svg xmlns="http://www.w3.org/2000/svg" width="1200" height="800" viewBox="0 0 1200 800"><defs><linearGradient id="g" x1="0" x2="0" y1="0" y2="1"><stop stop-color="#082f49"/><stop offset=".5" stop-color="#0CAFEC"/><stop offset="1" stop-color="#f8efe1"/></linearGradient></defs><rect width="1200" height="800" fill="url(#g)"/><circle cx="945" cy="150" r="92" fill="#f3b33d"/><path d="M0 520c170-120 330-60 515-150 210-104 370-76 685-20v450H0z" fill="#06182f" opacity=".55"/><path d="M0 630c210-50 386-16 600-32 230-18 382-70 600-18v220H0z" fill="#10231a"/><path d="M160 610c70-96 140-96 210 0-80-22-128-20-210 0z" fill="#07111f"/><text x="70" y="120" font-family="Arial,Helvetica,sans-serif" font-size="72" font-weight="900" fill="white">South Africa</text><text x="72" y="170" font-family="Arial,Helvetica,sans-serif" font-size="28" font-weight="700" fill="#f3b33d">Cape Town • Safari • Coastline</text></svg>