<svg xmlns="http://www.w3.org/2000/svg" width="1200" height="800" viewBox="0 0 1200 800"><defs><linearGradient id="sea" x1="0" x2="0" y1="0" y2="1"><stop stop-color="#67D8F8"/><stop offset=".58" stop-color="#0CAFEC"/><stop offset="1" stop-color="#006cae"/></linearGradient></defs><rect width="1200" height="800" fill="url(#sea)"/><circle cx="920" cy="145" r="90" fill="#f3b33d"/><path d="M0 520c240 45 410-60 650 8 210 60 330-20 550-70v342H0z" fill="#f8efe1"/><path d="M0 625c280-58 480 35 740-16 190-38 310 22 460-20v211H0z" fill="#06182f" opacity=".42"/><path d="M258 578h18V354h-18z" fill="#5b3715"/><path d="M268 360c-50-58-120-78-195-69 80-55 160-44 195 69zM270 360c42-76 102-116 185-126-54 78-102 116-185 126z" fill="#14532d"/><text x="70" y="120" font-family="Arial,Helvetica,sans-serif" font-size="78" font-weight="900" fill="#06182f">Zanzibar</text><text x="72" y="170" font-family="Arial,Helvetica,sans-serif" font-size="28" font-weight="700" fill="white">Beach • Honeymoon • Island Escape</text></svg>