<svg xmlns="http://www.w3.org/2000/svg" viewBox="0 0 1200 800" role="img" aria-labelledby="title desc"><title id="title">China travel destination</title><desc id="desc">Stylized Great Wall of China landscape at sunset.</desc><defs><linearGradient id="sky" x1="0" y1="0" x2="0" y2="1"><stop offset="0" stop-color="#7f1d1d"/><stop offset=".48" stop-color="#dc2626"/><stop offset="1" stop-color="#f59e0b"/></linearGradient><linearGradient id="mountain" x1="0" y1="0" x2="1" y2="1"><stop stop-color="#3f1d1d"/><stop offset="1" stop-color="#111827"/></linearGradient><linearGradient id="wall" x1="0" y1="0" x2="1" y2="1"><stop stop-color="#d6b47a"/><stop offset="1" stop-color="#6b4f2a"/></linearGradient><filter id="shadow" x="-20%" y="-20%" width="140%" height="140%"><feDropShadow dx="0" dy="10" stdDeviation="12" flood-color="#000" flood-opacity=".35"/></filter></defs><rect width="1200" height="800" fill="url(#sky)"/><circle cx="930" cy="150" r="92" fill="#fde68a" opacity=".95"/><path d="M0 430C160 320 290 345 430 420s270 70 410-20 250-105 360-20v420H0z" fill="#4c1d1d" opacity=".55"/><path d="M0 520C150 425 300 450 430 540s260 95 390 0 250-125 380-65v325H0z" fill="url(#mountain)"/><path d="M0 625C165 545 315 565 455 640s290 90 430 15 225-88 315-55v200H0z" fill="#0f172a" opacity=".88"/><g filter="url(#shadow)"><path d="M90 650c130-75 205-115 330-130 130-15 210-65 315-130 110-68 205-95 375-88l10 58c-147-6-229 18-323 78-113 72-210 135-355 151-108 12-176 48-308 124z" fill="url(#wall)"/><path d="M103 622c129-70 205-104 318-118 139-18 225-74 318-132 101-64 192-88 355-82l4 22c-151-5-235 20-330 80-109 69-205 128-342 145-113 14-185 49-316 122z" fill="#f3d59c" opacity=".9"/><g fill="#8b5e34"><rect x="210" y="552" width="72" height="62" rx="4"/><rect x="497" y="463" width="78" height="68" rx="4"/><rect x="770" y="343" width="86" height="74" rx="4"/><rect x="1015" y="292" width="86" height="72" rx="4"/></g><g fill="#5a3a20"><path d="M203 552h86l-10-22h-66z"/><path d="M489 463h94l-12-24h-70z"/><path d="M761 343h104l-14-26h-76z"/><path d="M1006 292h104l-14-26h-76z"/></g><g fill="#2b1a10"><rect x="237" y="575" width="18" height="39"/><rect x="526" y="486" width="20" height="45"/><rect x="802" y="367" width="22" height="50"/><rect x="1048" y="316" width="22" height="48"/></g></g><g opacity=".22" fill="#fff"><circle cx="170" cy="150" r="4"/><circle cx="255" cy="115" r="3"/><circle cx="330" cy="190" r="5"/><circle cx="730" cy="120" r="3"/><circle cx="1110" cy="205" r="4"/></g></svg>