<svg xmlns="http://www.w3.org/2000/svg" width="1920" height="860" viewBox="0 0 1920 860"><defs><linearGradient id="sky" x1="0" x2="0" y1="0" y2="1"><stop stop-color="#331d0a"/><stop offset=".24" stop-color="#894707"/><stop offset=".58" stop-color="#dd7907"/><stop offset="1" stop-color="#f5a11a"/></linearGradient><radialGradient id="sun" cx="52%" cy="74%" r="20%"><stop stop-color="#fff5bf"/><stop offset=".28" stop-color="#f9c54b"/><stop offset="1" stop-color="#f59e0b" stop-opacity="0"/></radialGradient><filter id="blur"><feGaussianBlur stdDeviation="9"/></filter></defs><rect width="1920" height="860" fill="url(#sky)"/><rect width="1920" height="860" fill="url(#sun)"/><g opacity=".42" filter="url(#blur)" fill="#2d1706"><path d="M0 70c120 28 190-8 300 10 125 21 190 72 340 40 173-38 260-83 440-48 150 30 265 80 420 35 137-39 270-50 420-10v92H0z"/><path d="M0 170c170 55 300-23 450 10 164 36 290 82 495 25 198-55 382-40 558 25 148 54 285-3 417 34v64H0z"/></g><path d="M0 680c180-32 288-18 420-14 220 7 330-30 540-20 230 11 340 50 520 29 152-18 282-53 440-12v197H0z" fill="#201305" opacity=".9"/><path d="M0 712c260-30 520 24 777 5 223-16 352-70 590-42 180 20 330-3 553-28v213H0z" fill="#100b05"/><g fill="#100b05"><path d="M514 696h18V302h-18z"/><path d="M524 337c-78 10-129 61-188 88 37-90 108-134 188-88z"/><path d="M525 321c-60-47-142-49-214-26 78-72 177-70 214 26z"/><path d="M526 318c42-80 120-108 203-111-60 69-108 113-203 111z"/><path d="M521 343c98-6 158 40 207 108-90-8-151-31-207-108z"/><path d="M526 307c-17-97 24-160 78-210 10 88 6 160-78 210z"/></g><g fill="#120c05" opacity=".95"><path d="M117 695c24-52 80-54 104-2-32-13-68-12-104 2z"/><rect x="139" y="686" width="12" height="58"/><rect x="187" y="686" width="12" height="58"/><path d="M785 692c38-70 134-72 178-1-55-19-116-19-178 1z"/><rect x="818" y="680" width="14" height="72"/><rect x="917" y="680" width="14" height="72"/><path d="M1030 692c44-72 152-70 200 2-62-21-130-22-200-2z"/><rect x="1065" y="681" width="15" height="73"/><rect x="1181" y="681" width="15" height="73"/><path d="M1450 698c42-74 132-76 180-1-61-20-120-20-180 1z"/><rect x="1486" y="685" width="15" height="70"/><rect x="1580" y="685" width="15" height="70"/></g><path d="M0 0h1920v860H0z" fill="#000" opacity=".18"/></svg>