<svg xmlns="http://www.w3.org/2000/svg" viewBox="0 0 760 220" role="img" aria-labelledby="title desc"><title id="title">Ferone Tours and Travels</title><desc id="desc">Transparent Ferone Tours and Travels logo with cyan globe, aircraft and text.</desc><defs><linearGradient id="cyan" x1="0" x2="1" y1="0" y2="1"><stop stop-color="#67D8F8"/><stop offset="1" stop-color="#0CAFEC"/></linearGradient></defs><g transform="translate(18 20)"><circle cx="90" cy="90" r="74" fill="none" stroke="url(#cyan)" stroke-width="12"/><path d="M18 90h144M90 16c27 31 41 56 41 74s-14 43-41 74M90 16C63 47 49 72 49 90s14 43 41 74" fill="none" stroke="#0CAFEC" stroke-width="7" stroke-linecap="round" opacity=".92"/><path d="M34 52 170 20l-55 70 43 42-22 15-52-36-47 23-13-17 42-39-45-9z" fill="#06182f"/><path d="M36 50 172 18l-55 70 43 42-22 15-52-36-47 23-13-17 42-39-45-9z" fill="#0CAFEC" opacity=".96"/><path d="M110 32c20 8 38 23 49 42" fill="none" stroke="#f3b33d" stroke-width="8" stroke-linecap="round"/></g><g transform="translate(220 58)"><text x="0" y="58" font-family="Arial, Helvetica, sans-serif" font-size="68" font-weight="900" letter-spacing="2" fill="#06182f">FERONE</text><text x="4" y="105" font-family="Arial, Helvetica, sans-serif" font-size="33" font-weight="800" letter-spacing="4" fill="#0CAFEC">TOURS &amp; TRAVELS</text><text x="5" y="142" font-family="Arial, Helvetica, sans-serif" font-size="22" font-weight="700" letter-spacing="1.2" fill="#f3b33d">EXPLORE BEYOND BORDERS</text></g></svg>