<svg xmlns="http://www.w3.org/2000/svg" viewBox="0 0 980 420" role="img" aria-labelledby="title desc"><title id="title">Ferone Tours and Travels Logo</title><desc id="desc">Ferone Tours and Travels blue globe and aircraft logo.</desc><defs><linearGradient id="blue" x1="0" x2="1" y1="0" y2="1"><stop stop-color="#003b80"/><stop offset=".5" stop-color="#0CAFEC"/><stop offset="1" stop-color="#001d4e"/></linearGradient><linearGradient id="deep" x1="0" x2="1" y1="0" y2="1"><stop stop-color="#001d4e"/><stop offset="1" stop-color="#0b75bd"/></linearGradient></defs><rect width="980" height="420" fill="none"/><g transform="translate(255 20)"><circle cx="230" cy="125" r="103" fill="none" stroke="url(#deep)" stroke-width="16" opacity=".95"/><path d="M90 186C202 150 318 96 440 48c9-4 17 8 9 15-74 67-170 122-279 170-36 16-58 20-80-47z" fill="url(#blue)"/><path d="M423 55l96-35c15-6 28 10 16 21l-66 57z" fill="url(#blue)"/><path d="M156 92c35-31 85-49 134-42 34 5 63 21 83 46" fill="none" stroke="url(#deep)" stroke-width="11" stroke-linecap="round"/><path d="M148 136c50-7 100-5 150 7" fill="none" stroke="url(#deep)" stroke-width="8" stroke-linecap="round" opacity=".75"/><path d="M180 48c-28 30-42 62-42 94s14 63 42 92M278 48c28 30 42 62 42 94 0 23-8 47-23 70" fill="none" stroke="url(#deep)" stroke-width="7" stroke-linecap="round" opacity=".75"/><path d="M110 270c85 30 164 31 237 4 61-22 126-20 197 19" fill="none" stroke="url(#blue)" stroke-width="19" stroke-linecap="round"/><path d="M58 302c93 22 180 24 262 4 80-20 166-10 258 32" fill="none" stroke="url(#deep)" stroke-width="15" stroke-linecap="round" opacity=".95"/></g><text x="490" y="335" text-anchor="middle" font-family="Georgia, 'Times New Roman', serif" font-size="142" font-weight="800" letter-spacing="20" fill="url(#deep)">FERONE</text><g fill="#0CAFEC" font-family="Arial, Helvetica, sans-serif" font-size="38" font-weight="800" letter-spacing="15"><text x="490" y="392" text-anchor="middle">TOURS &amp; TRAVELS</text></g><path d="M78 377h115M787 377h115" stroke="url(#blue)" stroke-width="9" stroke-linecap="round"/></svg>